<svg xmlns="http://www.w3.org/2000/svg" width="490" height="250" viewBox="0 0 490 250" fill="none">
<defs><linearGradient id="sh" x1="0" y1="0" x2="490" y2="0" gradientUnits="userSpaceOnUse"><stop offset="0" stop-color="#5C26FF" stop-opacity="0"/><stop offset=".5" stop-color="#5C26FF" stop-opacity=".9"/><stop offset="1" stop-color="#5C26FF" stop-opacity="0"/>
<animate attributeName="x1" values="-490;490" dur="5s" begin="1.6s" repeatCount="indefinite"/><animate attributeName="x2" values="0;980" dur="5s" begin="1.6s" repeatCount="indefinite"/></linearGradient></defs>
<style>text{font-family:Inter,-apple-system,BlinkMacSystemFont,&quot;Segoe UI&quot;,Helvetica,Arial,sans-serif} .mono{font-family:&quot;JetBrains Mono&quot;,SFMono-Regular,Menlo,Consolas,monospace}
@keyframes up{from{opacity:0;transform:translateY(12px)}to{opacity:1;transform:translateY(0)}}
@keyframes fade{from{opacity:0}to{opacity:1}}
@keyframes pulse{0%,100%{opacity:.35}50%{opacity:1}}
@keyframes ring{0%{r:6;opacity:.8}100%{r:22;opacity:0}}
.up{opacity:0;animation:up .8s cubic-bezier(.2,.8,.2,1) forwards}</style><g class="up" style="animation-delay:0.16s"><rect x=".5" y=".5" width="489" height="249" rx="18" fill="#111118" stroke="#24242F"/><rect x=".5" y=".5" width="489" height="249" rx="18" stroke="url(#sh)" stroke-width="1.5"/><rect x="28.0" y="24" width="87.2" height="24" rx="12" fill="#1A1A24" stroke="#24242F"/><g transform="translate(40.0,30)"><rect x="0" y="5" width="9" height="7" rx="1.5" fill="#5C26FF"/><path d="M2 5V3.5a2.5 2.5 0 0 1 5 0V5" stroke="#5C26FF" stroke-width="1.5"/></g><text x="54.0" y="40" class="mono" font-size="11" letter-spacing="1" fill="#9A9AAA">PRIVATE</text><text x="28" y="106" font-size="21" font-weight="700" letter-spacing="-.3" fill="#F5F5F7">Augmented consulting</text><text x="28" y="134" font-size="14" fill="#9A9AAA">AI-powered continuous strategic advisory for SMEs. Product</text><text x="28" y="155" font-size="14" fill="#9A9AAA">vision, roadmap and advisory flows.</text><rect x="28.0" y="200" width="79.2" height="26" rx="8" fill="#1A1A24"/><text x="38.0" y="218" class="mono" font-size="12" fill="#8B66FF">B2B SaaS</text><rect x="115.2" y="200" width="42.2" height="26" rx="8" fill="#1A1A24"/><text x="125.2" y="218" class="mono" font-size="12" fill="#8B66FF">LLM</text><rect x="165.4" y="200" width="42.2" height="26" rx="8" fill="#1A1A24"/><text x="175.4" y="218" class="mono" font-size="12" fill="#8B66FF">SME</text><text x="462" y="218" text-anchor="end" font-size="13" font-weight="600" fill="#8B66FF">Korbyx →</text></g></svg>